<svg width="1415" height="241" viewBox="0 0 1415 241" fill="none" xmlns="http://www.w3.org/2000/svg">
<path d="M1413.5 110C1413.5 117.361 1408.71 124.646 1399.34 131.771C1389.99 138.888 1376.16 145.775 1358.31 152.348C1322.6 165.491 1270.91 177.337 1206.99 187.288C1079.18 207.189 902.577 219.5 707.5 219.5C512.423 219.5 335.825 207.189 208.006 187.288C144.093 177.337 92.3981 165.491 56.693 152.348C38.8376 145.775 25.0104 138.888 15.6563 131.771C6.29154 124.646 1.5 117.361 1.5 110C1.5 102.639 6.29154 95.3545 15.6563 88.2291C25.0104 81.1118 38.8376 74.225 56.693 67.6523C92.3981 54.5089 144.093 42.6634 208.006 32.7123C335.825 12.8113 512.423 0.5 707.5 0.5C902.577 0.5 1079.18 12.8113 1206.99 32.7123C1270.91 42.6634 1322.6 54.5089 1358.31 67.6523C1376.16 74.225 1389.99 81.1118 1399.34 88.2291C1408.71 95.3545 1413.5 102.639 1413.5 110Z" stroke="url(#paint0_linear)"/>
<path fill-rule="evenodd" clip-rule="evenodd" d="M708 241C721.255 241 732 230.255 732 217C732 203.745 721.255 193 708 193C694.745 193 684 203.745 684 217C684 230.255 694.745 241 708 241Z" fill="#131212"/>
<path fill-rule="evenodd" clip-rule="evenodd" d="M711.188 212.578C711.188 211.781 712.074 211.304 712.739 211.743L719.969 216.512C720.592 216.923 720.561 217.847 719.912 218.216L712.683 222.325C712.016 222.704 711.188 222.223 711.188 221.456V212.578Z" fill="white"/>
<path fill-rule="evenodd" clip-rule="evenodd" d="M704.333 212.578C704.333 211.781 703.447 211.304 702.782 211.743L695.553 216.512C694.93 216.923 694.96 217.847 695.609 218.216L702.839 222.325C703.506 222.704 704.333 222.223 704.333 221.456V212.578Z" fill="white"/>
<defs>
<linearGradient id="paint0_linear" x1="722.841" y1="15.5046" x2="727.137" y2="550.961" gradientUnits="userSpaceOnUse">
<stop stop-color="#131212" stop-opacity="0.1"/>
<stop offset="0.641479" stop-color="#131212" stop-opacity="0.1"/>
</linearGradient>
</defs>
</svg>
